<svg xmlns="http://www.w3.org/2000/svg" xmlns:xlink="http://www.w3.org/1999/xlink" height="80" width="80" fill="#50bbe6" version="1.1" style="enable-background:new 0 0 100 100;" xml:space="preserve"><rect id="backgroundrect" width="100%" height="100%" x="0" y="0" fill="none" stroke="none" class="" style=""/><g class="currentLayer" style=""><title>Layer 1</title><path d="M33.975518189123534,30.928152078100588 c0,-0.5522461 -0.44775390000000004,-1 -1,-1 h-1.1279297 V19.613210678100586 h1.1279297 c0.4262695,0 0.8056641,-0.2700195 0.9448242000000001,-0.6728516000000002 c0.13964840000000003,-0.4033203000000001 0.008300800000000002,-0.8500977000000001 -0.32714840000000006,-1.1132812 l-10.515625,-8.2641602 c-0.3623047000000001,-0.2851562 -0.8725586000000001,-0.2851562 -1.2358398,0 l-10.5151367,8.2641602 C10.991631489123534,18.090261478100587 10.860283889123536,18.537527078100585 10.999932289123535,18.940359078100585 C11.139092489123534,19.343191178100586 11.518486989123534,19.613210678100586 11.944756489123534,19.613210678100586 h1.1342773 v10.3149414 h-1.15625 c-0.5522461,0 -1,0.44775390000000004 -1,1 s0.44775390000000004,1 1,1 h21.0527344 C33.52776428912353,31.928152078100588 33.975518189123534,31.480398178100586 33.975518189123534,30.928152078100588 zM29.847588489123538,29.928152078100588 h-3.5893555 V19.613210678100586 h3.5893555 V29.928152078100588 zM24.258233089123536,19.613210678100586 v10.3149414 H20.668389289123535 V19.613210678100586 H24.258233089123536 zM22.459893189123534,11.621023178100586 l7.625,5.9921875 H14.835381489123534 L22.459893189123534,11.621023178100586 zM15.079033889123536,19.613210678100586 h3.5893555 v10.3149414 h-3.5893555 V19.613210678100586 z" id="svg_1" class=""/><path d="M38.46184638912354,6.637624778100587 c-8.671875,-8.7382812 -22.9101562,-8.8657227 -31.7402344,-0.2817383 c-4.2807617,4.1621094 -6.6674805,9.7260742 -6.7207031,15.6669922 c-0.05322270000000001,5.9389648 2.2324219,11.5429688 6.4360352,15.7797852 c4.4345093,4.4681396 10.3956299,6.7941284 16.494751,6.6522217 c-1.0994263,4.8543701 -0.4584351,9.731201200000001 -0.432251,9.9185791 c0.3208008000000001,3.1191406 1.5244141,7.168457 3.0712891,10.3388672 c1.3530273,4.5253906 -7.1210938,7.925293 -7.2075195,7.9589844 c-0.30761720000000004,0.12158200000000001 -0.5356445000000001,0.3867188000000001 -0.6088867,0.7094727 c-0.07275390000000001,0.32226560000000004 0.017578100000000006,0.6601562000000001 0.2426758,0.9018555 c6.105957,6.5678711 14.4404259,2.0727539 16.7470703,0.6181641 C39.58049868912354,78.23137477810059 45.24602608912353,79.98821067810059 51.17473698912354,79.98821067810059 C67.06877998912354,79.98821067810059 79.99993228912354,67.18401147810059 79.99993228912354,51.44524187810059 s-12.9311523,-28.543457 -28.8251953,-28.543457 c-2.1256714,0 -4.2356567,0.24365230000000002 -6.2924194,0.6973877 C45.265374189123534,17.532705278100586 43.13567448912354,11.348440178100585 38.46184638912354,6.637624778100587 zM7.856865889123537,36.393484078100585 c-3.824707,-3.8540039 -5.9047852,-8.9516602 -5.8564453,-14.3530273 c0.04882810000000001,-5.402832 2.2207031,-10.4638672 6.1157227,-14.2509766 c8.046875,-7.8217773 21.0224609,-7.7070312 28.9257812,0.2568359 c7.8017578,7.8632812 7.8725586,20.2426758 0.16064450000000002,28.1835938 c-0.13671880000000003,0.140625 -0.27636720000000004,0.2807617 -0.418457,0.418457 c-0.026367200000000007,0.025878900000000007 -0.051757800000000014,0.05273440000000001 -0.07519530000000002,0.08154300000000002 c-1.1889648,1.4375 -1.203125,2.7270508 -1.0058594,3.5556641 c0.2924805000000001,1.2260742 1.1884766,2.1801757999999998 2.0507812,2.8452148 c-5.0581055,1.5546875 -7.859375,-1.2578125 -7.9853515999999996,-1.3876953 c-0.19189450000000002,-0.20361330000000002 -0.456543,-0.3139648000000001 -0.7275391,-0.3139648000000001 c-0.10156250000000001,0 -0.2041016,0.015625000000000003 -0.30371090000000006,0.04736330000000001 C21.316826789123535,43.84221457810059 13.316338489123535,41.894460678100586 7.856865889123537,36.393484078100585 zM51.17473698912354,24.901784878100585 C65.96624088912354,24.901784878100585 77.99993228912354,36.80901147810059 77.99993228912354,51.44524187810059 C77.99993228912354,66.08098407810058 65.96624088912354,77.98821067810059 51.17473698912354,77.98821067810059 c-5.7387695,0 -11.2119141,-1.7670898000000002 -15.8271484,-5.1098633 c-0.35205080000000005,-0.2548828000000001 -0.8310547,-0.25292970000000004 -1.1821289,0.0068359000000000015 c-0.08251950000000001,0.06054690000000001 -7.8217773,5.6894531 -13.6591797,1.0097656 c2.7822266,-1.3789062 8.5317383,-4.9013672 6.9492188,-9.8569336 c-0.015136700000000003,-0.046875000000000014 -0.03320310000000001,-0.09277340000000003 -0.05517580000000001,-0.13671880000000003 c-1.4672852,-2.9858398 -2.6103516,-6.8061523 -2.9155273,-9.7646484 c-0.006713900000000002,-0.051879900000000014 -0.6708374000000001,-5.1633911 0.5462646,-9.836120600000001 c1.2590332,-0.1468506 2.5172119,-0.38739010000000007 3.7623291,-0.7503052000000001 c0.8793945000000001,0.7177734000000001 2.9331055,2.0581055 6.003418,2.0581055 c1.6064453,0 3.4916992000000002,-0.36767580000000005 5.6318359000000004,-1.3833008000000002 c0.35351560000000004,-0.16748050000000003 0.5756836000000001,-0.5263671999999999 0.5703124999999999,-0.9174804999999999 s-0.23925780000000002,-0.7436523 -0.597168,-0.9013671999999999 c-0.6650391000000001,-0.2939453 -2.4570312,-1.331543 -2.7539062000000003,-2.5878906 c-0.1313477,-0.5566406000000002 0.054687500000000014,-1.137207 0.5693359,-1.7734375 c0.1425781,-0.1391602 0.2832031,-0.2802734 0.42041020000000007,-0.42187500000000006 c3.3233643,-3.4221191 5.3123779,-7.5960083 6.0100708,-11.9246216 C46.770806289123534,25.173330278100586 48.96447088912353,24.901784878100585 51.17473698912354,24.901784878100585 z" id="svg_2" class=""/><path d="M43.115654989123534,48.69573017810058 h18 c0.5522461,0 1,-0.44775390000000004 1,-1 s-0.44775390000000004,-1 -1,-1 h-18 c-0.5522461,0 -1,0.44775390000000004 -1,1 S42.56340888912354,48.69573017810058 43.115654989123534,48.69573017810058 z" id="svg_3" class=""/><path d="M43.115654989123534,58.26018337810059 h18 c0.5522461,0 1,-0.44775390000000004 1,-1 s-0.44775390000000004,-1 -1,-1 h-18 c-0.5522461,0 -1,0.44775390000000004 -1,1 S42.56340888912354,58.26018337810059 43.115654989123534,58.26018337810059 z" id="svg_4" class=""/></g></svg>