<svg height='300px' width='300px'  fill="#50bbe6" xmlns="http://www.w3.org/2000/svg" xmlns:xlink="http://www.w3.org/1999/xlink" version="1.1" x="0px" y="0px" viewBox="0 0 100 100" style="enable-background:new 0 0 100 100;" xml:space="preserve"><path d="M43.9755859,40.9399414c0-0.5522461-0.4477539-1-1-1h-1.1279297V29.625h1.1279297  c0.4262695,0,0.8056641-0.2700195,0.9448242-0.6728516c0.1396484-0.4033203,0.0083008-0.8500977-0.3271484-1.1132812  l-10.515625-8.2641602c-0.3623047-0.2851562-0.8725586-0.2851562-1.2358398,0l-10.5151367,8.2641602  C20.9916992,28.1020508,20.8603516,28.5493164,21,28.9521484C21.1391602,29.3549805,21.5185547,29.625,21.9448242,29.625h1.1342773  v10.3149414h-1.15625c-0.5522461,0-1,0.4477539-1,1s0.4477539,1,1,1h21.0527344  C43.527832,41.9399414,43.9755859,41.4921875,43.9755859,40.9399414z M39.8476562,39.9399414h-3.5893555V29.625h3.5893555  V39.9399414z M34.2583008,29.625v10.3149414H30.668457V29.625H34.2583008z M32.4599609,21.6328125l7.625,5.9921875H24.8354492  L32.4599609,21.6328125z M25.0791016,29.625h3.5893555v10.3149414h-3.5893555V29.625z"></path><path d="M48.4619141,16.6494141c-8.671875-8.7382812-22.9101562-8.8657227-31.7402344-0.2817383  c-4.2807617,4.1621094-6.6674805,9.7260742-6.7207031,15.6669922c-0.0532227,5.9389648,2.2324219,11.5429688,6.4360352,15.7797852  c4.4345093,4.4681396,10.3956299,6.7941284,16.494751,6.6522217c-1.0994263,4.8543701-0.4584351,9.7312012-0.432251,9.9185791  c0.3208008,3.1191406,1.5244141,7.168457,3.0712891,10.3388672c1.3530273,4.5253906-7.1210938,7.925293-7.2075195,7.9589844  c-0.3076172,0.121582-0.5356445,0.3867188-0.6088867,0.7094727c-0.0727539,0.3222656,0.0175781,0.6601562,0.2426758,0.9018555  c6.105957,6.5678711,14.4404259,2.0727539,16.7470703,0.6181641C49.5805664,88.2431641,55.2460938,90,61.1748047,90  C77.0688477,90,90,77.1958008,90,61.4570312s-12.9311523-28.543457-28.8251953-28.543457  c-2.1256714,0-4.2356567,0.2436523-6.2924194,0.6973877C55.2654419,27.5444946,53.1357422,21.3602295,48.4619141,16.6494141z   M17.8569336,46.4052734c-3.824707-3.8540039-5.9047852-8.9516602-5.8564453-14.3530273  c0.0488281-5.402832,2.2207031-10.4638672,6.1157227-14.2509766c8.046875-7.8217773,21.0224609-7.7070312,28.9257812,0.2568359  c7.8017578,7.8632812,7.8725586,20.2426758,0.1606445,28.1835938c-0.1367188,0.140625-0.2763672,0.2807617-0.418457,0.418457  c-0.0263672,0.0258789-0.0517578,0.0527344-0.0751953,0.081543c-1.1889648,1.4375-1.203125,2.7270508-1.0058594,3.5556641  c0.2924805,1.2260742,1.1884766,2.1801758,2.0507812,2.8452148c-5.0581055,1.5546875-7.859375-1.2578125-7.9853516-1.3876953  c-0.1918945-0.2036133-0.456543-0.3139648-0.7275391-0.3139648c-0.1015625,0-0.2041016,0.015625-0.3037109,0.0473633  C31.3168945,53.8540039,23.3164062,51.90625,17.8569336,46.4052734z M61.1748047,34.9135742  C75.9663086,34.9135742,88,46.8208008,88,61.4570312C88,76.0927734,75.9663086,88,61.1748047,88  c-5.7387695,0-11.2119141-1.7670898-15.8271484-5.1098633c-0.3520508-0.2548828-0.8310547-0.2529297-1.1821289,0.0068359  c-0.0825195,0.0605469-7.8217773,5.6894531-13.6591797,1.0097656c2.7822266-1.3789062,8.5317383-4.9013672,6.9492188-9.8569336  c-0.0151367-0.046875-0.0332031-0.0927734-0.0551758-0.1367188c-1.4672852-2.9858398-2.6103516-6.8061523-2.9155273-9.7646484  c-0.0067139-0.0518799-0.6708374-5.1633911,0.5462646-9.8361206c1.2590332-0.1468506,2.5172119-0.3873901,3.7623291-0.7503052  c0.8793945,0.7177734,2.9331055,2.0581055,6.003418,2.0581055c1.6064453,0,3.4916992-0.3676758,5.6318359-1.3833008  c0.3535156-0.1674805,0.5756836-0.5263672,0.5703125-0.9174805s-0.2392578-0.7436523-0.597168-0.9013672  c-0.6650391-0.2939453-2.4570312-1.331543-2.7539062-2.5878906c-0.1313477-0.5566406,0.0546875-1.137207,0.5693359-1.7734375  c0.1425781-0.1391602,0.2832031-0.2802734,0.4204102-0.421875c3.3233643-3.4221191,5.3123779-7.5960083,6.0100708-11.9246216  C56.770874,35.1851196,58.9645386,34.9135742,61.1748047,34.9135742z"></path><path d="M53.1157227,58.7075195h18c0.5522461,0,1-0.4477539,1-1s-0.4477539-1-1-1h-18c-0.5522461,0-1,0.4477539-1,1  S52.5634766,58.7075195,53.1157227,58.7075195z"></path><path d="M53.1157227,68.2719727h18c0.5522461,0,1-0.4477539,1-1s-0.4477539-1-1-1h-18c-0.5522461,0-1,0.4477539-1,1  S52.5634766,68.2719727,53.1157227,68.2719727z"></path></svg>